<?xml version="1.0" encoding="UTF-8" standalone="no"?>
<!DOCTYPE svg PUBLIC "-//W3C//DTD SVG 1.1//EN" "http://www.w3.org/Graphics/SVG/1.1/DTD/svg11.dtd">
<!-- Generováno Microsoft Visiem, export SVG Menu.svg Page-1 -->
<svg xmlns="http://www.w3.org/2000/svg" xmlns:xlink="http://www.w3.org/1999/xlink" xmlns:ev="http://www.w3.org/2001/xml-events"
		xmlns:v="http://schemas.microsoft.com/visio/2003/SVGExtensions/" width="12.6309in" height="9.10172in"
		viewBox="0 0 909.422 655.324" xml:space="preserve" color-interpolation-filters="sRGB" class="st7">
	<v:documentProperties v:langID="1029" v:metric="true" v:viewMarkup="false">
		<v:userDefs>
			<v:ud v:nameU="msvNoAutoConnect" v:val="VT0(1):26"/>
		</v:userDefs>
	</v:documentProperties>

	<style type="text/css">
	<![CDATA[
		.st1 {fill:#000000;stroke:none;stroke-linecap:butt;stroke-width:0.75}
		.st2 {fill:#9c9c9c;stroke:none;stroke-linecap:butt;stroke-width:1}
		.st3 {fill:#ff0000;stroke:#303030;stroke-linecap:butt;stroke-width:0.749785}
		.st4 {fill:#4c4c4c;stroke:#303030;stroke-linecap:butt;stroke-width:0.749785}
		.st5 {fill:none;stroke:none;stroke-linecap:round;stroke-linejoin:round;stroke-width:0.75}
		.st6 {fill:#ffffff;font-family:Arial;font-size:4.00001em;font-weight:bold}
		.st7 {fill:none;fill-rule:evenodd;font-size:12px;overflow:visible;stroke-linecap:square;stroke-miterlimit:3;width:100%;height:auto}
	]]>
	</style>

	<g v:mID="0" v:index="1" v:groupContext="foregroundPage">
		<title>Stránka-1</title>
		<v:pageProperties v:drawingScale="0.0393701" v:pageScale="0.0393701" v:drawingUnits="24" v:shadowOffsetX="9"
				v:shadowOffsetY="-9"/>
		<g id="group1-1" transform="translate(18.75,-18.75)" v:mID="1" v:groupContext="group">
			<title>List.1</title>
			<g id="group2-2" v:mID="2" v:groupContext="group">
				<title>clip1</title>
				<g id="shape3-3" v:mID="3" v:groupContext="shape">
					<title>path85</title>
					<path d="M0 37.5 L871.92 37.5 L871.92 655.32 L0 655.32 L0 37.5 Z" class="st1"/>
				</g>
			</g>
			<g id="shape4-5" v:mID="4" v:groupContext="shape" transform="translate(1.125,-1.875)">
				<title>path94</title>
				<path d="M0 40.5 L869.75 40.5 L869.75 655.32 L0 655.32 L0 40.5 Z" class="st2"/>
			</g>
			<g v:mID="5" v:groupContext="shape" transform="translate(784.648,-529.723)">
				<title>HMI_Kruh_Indikace</title>
				<path id="HMI_Kruh_Indikace"  d="M74.98 617.83 C74.98 619.06 74.92 620.29 74.8 621.51 C74.68 622.73 74.5 623.94 74.26 625.15 C74.02 626.35
							 73.72 627.54 73.37 628.71 C73.01 629.89 72.6 631.05 72.13 632.18 C71.66 633.31 71.13 634.42 70.55 635.5
							 C69.97 636.59 69.34 637.64 68.66 638.66 C67.98 639.68 67.25 640.67 66.47 641.62 C65.69 642.57 64.87
							 643.47 64 644.34 C63.13 645.21 62.22 646.04 61.27 646.81 C60.32 647.59 59.34 648.32 58.32 649 C57.3
							 649.69 56.25 650.32 55.16 650.89 C54.08 651.47 52.97 652 51.84 652.47 C50.7 652.94 49.55 653.35 48.38
							 653.71 C47.2 654.07 46.01 654.36 44.8 654.6 C43.6 654.84 42.39 655.02 41.16 655.14 C39.95 655.26 38.72
							 655.32 37.49 655.32 C36.26 655.32 35.04 655.26 33.82 655.14 C32.59 655.02 31.38 654.84 30.18 654.6 C28.97
							 654.36 27.78 654.07 26.61 653.71 C25.43 653.35 24.28 652.94 23.14 652.47 C22.01 652 20.9 651.47 19.82
							 650.89 C18.73 650.32 17.68 649.69 16.66 649 C15.64 648.32 14.66 647.59 13.71 646.81 C12.76 646.04 11.85
							 645.21 10.98 644.34 C10.11 643.47 9.29 642.57 8.51 641.62 C7.73 640.67 7 639.68 6.32 638.66 C5.64 637.64
							 5.01 636.59 4.43 635.5 C3.85 634.42 3.32 633.31 2.86 632.18 C2.39 631.05 1.97 629.89 1.62 628.71 C1.26
							 627.54 0.96 626.35 0.72 625.15 C0.48 623.94 0.3 622.73 0.18 621.51 C0.06 620.29 0 619.06 0 617.83 C0
							 616.61 0.06 615.38 0.18 614.16 C0.3 612.94 0.48 611.72 0.72 610.52 C0.96 609.32 1.26 608.12 1.62 606.95
							 C1.97 605.78 2.39 604.62 2.86 603.49 C3.32 602.35 3.85 601.24 4.43 600.16 C5.01 599.08 5.64 598.03 6.32
							 597 C7 595.98 7.73 595 8.51 594.05 C9.29 593.1 10.11 592.19 10.98 591.32 C11.85 590.46 12.76 589.63
							 13.71 588.86 C14.66 588.07 15.64 587.34 16.66 586.66 C17.68 585.98 18.73 585.35 19.82 584.77 C20.9 584.19
							 22.01 583.67 23.14 583.2 C24.28 582.73 25.43 582.32 26.61 581.96 C27.78 581.6 28.97 581.3 30.18 581.06
							 C31.38 580.82 32.59 580.64 33.82 580.52 C35.04 580.4 36.26 580.34 37.49 580.34 C38.72 580.34 39.95 580.4
							 41.16 580.52 C42.39 580.64 43.6 580.82 44.8 581.06 C46.01 581.3 47.2 581.6 48.38 581.96 C49.55 582.32
							 50.7 582.73 51.84 583.2 C52.97 583.67 54.08 584.19 55.16 584.77 C56.25 585.35 57.3 585.98 58.32 586.66
							 C59.34 587.34 60.32 588.07 61.27 588.86 C62.22 589.63 63.13 590.46 64 591.32 C64.87 592.19 65.69 593.1
							 66.47 594.05 C67.25 595 67.98 595.98 68.66 597 C69.34 598.03 69.97 599.08 70.55 600.16 C71.13 601.24
							 71.66 602.35 72.13 603.49 C72.6 604.62 73.01 605.78 73.37 606.95 C73.72 608.12 74.02 609.32 74.26 610.52
							 C74.5 611.72 74.68 612.94 74.8 614.16 C74.92 615.38 74.98 616.61 74.98 617.83 Z" fill="#FF0000" stroke="#000000"/>
			</g>
			<g id="blowers" v:mID="6" v:groupContext="shape" transform="translate(197.941,-484.738)">
				<title>HMI_Tlac_Dmychadla</title>
				<path d="M0 587.84 L476.12 587.84 L476.12 655.32 L0 655.32 L0 587.84 Z" class="st4"/>
			</g>
			<g id="pumps" v:mID="21" v:groupContext="shape" transform="translate(197.566,-379.766)">
				<title>HMI_Tlac_Cerpadla</title>
				<path d="M0 587.84 L476.12 587.84 L476.12 655.32 L0 655.32 L0 587.84 Z" class="st4"/>
			</g>
			<g id="reservoirs" v:mID="35" v:groupContext="shape" transform="translate(197.566,-275.547)">
				<title>HMI_Tlac_Nadrze</title>
				<path d="M0 587.84 L476.12 587.84 L476.12 655.32 L0 655.32 L0 587.84 Z" class="st4"/>
			</g>
			<g id="drain" v:mID="47" v:groupContext="shape" transform="translate(197.566,-169.828)">
				<title>HMI_Tlac_Vypustit</title>
				<path d="M0 587.84 L476.12 587.84 L476.12 655.32 L0 655.32 L0 587.84 Z" class="st4"/>
			</g>
			<g id="back" v:mID="65" v:groupContext="shape" transform="translate(197.566,-64.8594)">
				<title>HMI_Tlac_Zpet_Menu</title>
				<path d="M0 587.84 L476.12 587.84 L476.12 655.32 L0 655.32 L0 587.84 Z" class="st4"/>
			</g>
		</g>
		<g id="shape71-19" v:mID="71" v:groupContext="shape" transform="translate(216.652,-504.567)">
			<title>List.71</title>
			<desc>Stav dmychadel</desc>
			<v:textBlock v:margins="rect(4,4,4,4)" v:tabSpace="42.5197"/>
			<v:textRect cx="238.059" cy="621.584" width="476.12" height="67.4805"/>
			<rect x="0" y="587.844" width="476.117" height="67.4805" class="st5"/>
			<text x="55.32" y="635.98" class="st6" v:langID="1029"><v:paragraph v:horizAlign="1"/><v:tabList/>Stav dmychadel</text>		</g>
		<g id="shape72-22" v:mID="72" v:groupContext="shape" transform="translate(216.652,-397.401)">
			<title>List.72</title>
			<desc>Stav čerpadel</desc>
			<v:textBlock v:margins="rect(4,4,4,4)" v:tabSpace="42.5197"/>
			<v:textRect cx="238.059" cy="621.584" width="476.12" height="67.4805"/>
			<rect x="0" y="587.844" width="476.117" height="67.4805" class="st5"/>
			<text x="81.98" y="635.98" class="st6" v:langID="1029"><v:paragraph v:horizAlign="1"/><v:tabList/>Stav čerpadel</text>		</g>
		<g id="shape73-25" v:mID="73" v:groupContext="shape" transform="translate(216.652,-293.922)">
			<title>List.73</title>
			<desc>Stav nádrží</desc>
			<v:textBlock v:margins="rect(4,4,4,4)" v:tabSpace="42.5197"/>
			<v:textRect cx="238.059" cy="621.584" width="476.12" height="67.4805"/>
			<rect x="0" y="587.844" width="476.117" height="67.4805" class="st5"/>
			<text x="110.02" y="635.98" class="st6" v:langID="1029"><v:paragraph v:horizAlign="1"/><v:tabList/>Stav nádrží</text>		</g>
		<g id="shape74-28" v:mID="74" v:groupContext="shape" transform="translate(216.652,-187.638)">
			<title>List.74</title>
			<desc>Vypustit čističku</desc>
			<v:textBlock v:margins="rect(4,4,4,4)" v:tabSpace="42.5197"/>
			<v:textRect cx="238.059" cy="621.584" width="476.12" height="67.4805"/>
			<rect x="0" y="587.844" width="476.117" height="67.4805" class="st5"/>
			<text x="47.34" y="635.98" class="st6" v:langID="1029"><v:paragraph v:horizAlign="1"/><v:tabList/>Vypustit čističku</text>		</g>
		<g id="shape76-31" v:mID="76" v:groupContext="shape" transform="translate(216.652,-85.0394)">
			<title>List.76</title>
			<desc>Zpět</desc>
			<v:textBlock v:margins="rect(4,4,4,4)" v:tabSpace="42.5197"/>
			<v:textRect cx="238.059" cy="621.584" width="476.12" height="67.4805"/>
			<rect x="0" y="587.844" width="476.117" height="67.4805" class="st5"/>
			<text x="187.4" y="635.98" class="st6" v:langID="1029"><v:paragraph v:horizAlign="1"/><v:tabList/>Zpět</text>		</g>
	</g>
</svg>
