<?xml version="1.0" encoding="UTF-8" standalone="no"?>
<!DOCTYPE svg PUBLIC "-//W3C//DTD SVG 1.1//EN" "http://www.w3.org/Graphics/SVG/1.1/DTD/svg11.dtd">
<!-- Generováno Microsoft Visiem, export SVG pumps.svg Stránka-1 -->
<svg xmlns="http://www.w3.org/2000/svg" xmlns:xlink="http://www.w3.org/1999/xlink" xmlns:ev="http://www.w3.org/2001/xml-events"
		xmlns:v="http://schemas.microsoft.com/visio/2003/SVGExtensions/" width="12.1309in" height="8.60172in"
		viewBox="0 0 873.422 619.324" xml:space="preserve" color-interpolation-filters="sRGB" class="st13">
	<v:documentProperties v:langID="1029" v:metric="true" v:viewMarkup="false"/>

	<style type="text/css">
	<![CDATA[
		.st1 {fill:#000000;stroke:none;stroke-linecap:butt;stroke-width:0.75}
		.st2 {fill:#9c9c9c;stroke:none;stroke-linecap:butt;stroke-width:1}
		.st3 {fill:#ff0000;stroke:#303030;stroke-linecap:butt;stroke-width:0.749785}
		.st4 {fill:#ffffff;stroke:#303030;stroke-linecap:butt;stroke-width:0.749785}
		.st5 {fill:#4c4c4c;stroke:#303030;stroke-linecap:butt;stroke-width:0.749785}
		.st6 {fill:#ffffff;stroke:#303030;stroke-linecap:butt;stroke-width:3.74892}
		.st7 {fill:none;stroke:none;stroke-linecap:round;stroke-linejoin:round;stroke-width:0.75}
		.st8 {fill:#000000;font-family:Arial;font-size:4.99999em;font-weight:bold}
		.st9 {fill:#000000;font-family:Arial;font-size:2.50001em}
		.st10 {font-size:1em}
		.st11 {fill:#000000;font-family:Arial;font-size:2.50001em;font-weight:bold}
		.st12 {fill:#ffffff;font-family:Arial;font-size:1.99999em;font-weight:bold}
		.st13 {fill:none;fill-rule:evenodd;font-size:12px;overflow:visible;stroke-linecap:square;stroke-miterlimit:3;width:100%;height:auto}
	]]>
	</style>

	<g v:mID="0" v:index="1" v:groupContext="foregroundPage">
		<title>Stránka-1</title>
		<v:pageProperties v:drawingScale="0.0393701" v:pageScale="0.0393701" v:drawingUnits="24" v:shadowOffsetX="9"
				v:shadowOffsetY="-9"/>
		<g id="group1-1" transform="translate(0.75,-0.75)" v:mID="1" v:groupContext="group">
			<title>List.1</title>
			<g id="group2-2" v:mID="2" v:groupContext="group">
				<title>clip1</title>
				<g id="shape3-3" v:mID="3" v:groupContext="shape">
					<title>path229</title>
					<path d="M0 1.5 L871.92 1.5 L871.92 619.32 L0 619.32 L0 1.5 Z" class="st1"/>
				</g>
			</g>
			<g id="shape4-5" v:mID="4" v:groupContext="shape" transform="translate(1.125,-1.875)">
				<title>path238</title>
				<path d="M0 4.5 L869.75 4.5 L869.75 619.32 L0 619.32 L0 4.5 Z" class="st2"/>
			</g>
			<g id="shape5-7" v:mID="5" v:groupContext="shape" transform="translate(784.648,-529.723)">
				<title>HMI_Kruh_Indikace</title>
				<path id="HMI_Kruh_Indikace" d="M74.98 581.83 C74.98 583.06 74.92 584.29 74.8 585.51 C74.68 586.73 74.5 587.94 74.26 589.15 C74.02 590.35
							 73.72 591.54 73.37 592.71 C73.01 593.89 72.6 595.05 72.13 596.18 C71.66 597.31 71.13 598.42 70.55 599.5
							 C69.97 600.59 69.34 601.64 68.66 602.66 C67.98 603.68 67.25 604.67 66.47 605.62 C65.69 606.57 64.87
							 607.47 64 608.34 C63.13 609.21 62.22 610.04 61.27 610.81 C60.32 611.59 59.34 612.32 58.32 613 C57.3
							 613.69 56.25 614.32 55.16 614.89 C54.08 615.47 52.97 616 51.84 616.47 C50.7 616.94 49.55 617.35 48.38
							 617.71 C47.2 618.07 46.01 618.36 44.8 618.6 C43.6 618.84 42.39 619.02 41.16 619.14 C39.95 619.26 38.72
							 619.32 37.49 619.32 C36.26 619.32 35.04 619.26 33.82 619.14 C32.59 619.02 31.38 618.84 30.18 618.6 C28.97
							 618.36 27.78 618.07 26.61 617.71 C25.43 617.35 24.28 616.94 23.14 616.47 C22.01 616 20.9 615.47 19.82
							 614.89 C18.73 614.32 17.68 613.69 16.66 613 C15.64 612.32 14.66 611.59 13.71 610.81 C12.76 610.04 11.85
							 609.21 10.98 608.34 C10.11 607.47 9.29 606.57 8.51 605.62 C7.73 604.67 7 603.68 6.32 602.66 C5.64 601.64
							 5.01 600.59 4.43 599.5 C3.85 598.42 3.32 597.31 2.86 596.18 C2.39 595.05 1.97 593.89 1.62 592.71 C1.26
							 591.54 0.96 590.35 0.72 589.15 C0.48 587.94 0.3 586.73 0.18 585.51 C0.06 584.29 0 583.06 0 581.83 C0
							 580.61 0.06 579.38 0.18 578.16 C0.3 576.94 0.48 575.72 0.72 574.52 C0.96 573.32 1.26 572.12 1.62 570.95
							 C1.97 569.78 2.39 568.62 2.86 567.49 C3.32 566.35 3.85 565.24 4.43 564.16 C5.01 563.08 5.64 562.03 6.32
							 561 C7 559.98 7.73 559 8.51 558.05 C9.29 557.1 10.11 556.19 10.98 555.32 C11.85 554.46 12.76 553.63
							 13.71 552.86 C14.66 552.07 15.64 551.34 16.66 550.66 C17.68 549.98 18.73 549.35 19.82 548.77 C20.9 548.19
							 22.01 547.67 23.14 547.2 C24.28 546.73 25.43 546.32 26.61 545.96 C27.78 545.6 28.97 545.3 30.18 545.06
							 C31.38 544.82 32.59 544.64 33.82 544.52 C35.04 544.4 36.26 544.34 37.49 544.34 C38.72 544.34 39.95 544.4
							 41.16 544.52 C42.39 544.64 43.6 544.82 44.8 545.06 C46.01 545.3 47.2 545.6 48.38 545.96 C49.55 546.32
							 50.7 546.73 51.84 547.2 C52.97 547.67 54.08 548.19 55.16 548.77 C56.25 549.35 57.3 549.98 58.32 550.66
							 C59.34 551.34 60.32 552.07 61.27 552.86 C62.22 553.63 63.13 554.46 64 555.32 C64.87 556.19 65.69 557.1
							 66.47 558.05 C67.25 559 67.98 559.98 68.66 561 C69.34 562.03 69.97 563.08 70.55 564.16 C71.13 565.24
							 71.66 566.35 72.13 567.49 C72.6 568.62 73.01 569.78 73.37 570.95 C73.72 572.12 74.02 573.32 74.26 574.52
							 C74.5 575.72 74.68 576.94 74.8 578.16 C74.92 579.38 74.98 580.61 74.98 581.83 Z" fill="#FF0000" stroke="#000000"/>
			</g>
			<g v:mID="30" v:groupContext="shape" transform="translate(184.82,-499.734)">
				<title>HMI_Ctverec_Cerpadlo_1</title>
				<path id="HMI_Ctverec_Cerpadlo_1" d="M0 581.84 L44.99 581.84 L44.99 619.32 L0 619.32 L0 581.84 Z" fill="#FFFFFF" stroke="#000000"/>
			</g>
			<g v:mID="31" v:groupContext="shape" transform="translate(184.82,-441.625)">
				<title>HMI_Ctverec_Cerpadlo_2</title>
				<path id="HMI_Ctverec_Cerpadlo_2" d="M0 581.84 L44.99 581.84 L44.99 619.32 L0 619.32 L0 581.84 Z" fill="#FFFFFF" stroke="#000000"/>
			</g>
			<g v:mID="32" v:groupContext="shape" transform="translate(184.82,-381.641)">
				<title>HMI_Ctverec_Cerpadlo_3</title>
				<path id="HMI_Ctverec_Cerpadlo_3" d="M0 581.83 L44.99 581.83 L44.99 619.32 L0 619.32 L0 581.83 Z" fill="#FFFFFF" stroke="#000000"/>
			</g>
			<g id="HMI_Tlac_Uvod" v:mID="33" v:groupContext="shape" transform="translate(612.199,-102.348)">
				<title>HMI_Tlac_Uvod</title>
				<path d="M0 559.34 L224.94 559.34 L224.94 619.32 L0 619.32 L0 559.34 Z" class="st5"/>
			</g>
			<g id="shape50-17" v:mID="50" v:groupContext="shape" transform="translate(612.199,-27.3672)">
				<title>path336</title>
				<path d="M0 559.34 L224.94 559.34 L224.94 619.32 L0 619.32 L0 559.34 Z" class="st5"/>
			</g>
			<g v:mID="51" v:groupContext="shape" transform="translate(612.199,-27.3672)">
				<title>HMI_Tlac_Zpet_Cerpadla</title>
				<path id="back" d="M0 559.34 L224.94 559.34 L224.94 619.32 L0 619.32 L0 559.34 Z" class="st5"/>
			</g>
			<g v:mID="57" v:groupContext="shape" transform="translate(413.508,-499.734)">
				<title>HMI_Ctverec_Cerpadlo_7</title>
				<path id="HMI_Ctverec_Cerpadlo_7" d="M0 581.84 L44.98 581.84 L44.98 619.32 L0 619.32 L0 581.84 Z" fill="#FFFFFF" stroke="#000000"/>
			</g>
			<g v:mID="58" v:groupContext="shape" transform="translate(413.508,-441.625)">
				<title>HMI_Ctverec_Cerpadlo_8</title>
				<path id="HMI_Ctverec_Cerpadlo_8" d="M0 581.84 L44.98 581.84 L44.98 619.32 L0 619.32 L0 581.84 Z" fill="#FFFFFF" stroke="#000000"/>
			</g>
			<g v:mID="59" v:groupContext="shape" transform="translate(413.508,-381.641)">
				<title>HMI_Ctverec_Cerpadlo_9</title>
				<path id="HMI_Ctverec_Cerpadlo_9" d="M0 581.83 L44.98 581.83 L44.98 619.32 L0 619.32 L0 581.83 Z" fill="#FFFFFF" stroke="#000000"/>
			</g>
			<g id="HMI_Tlac_Start_SBR_1" v:mID="60" v:groupContext="shape" transform="translate(492.234,-406.012)">
				<title>HMI_Tlac_Start_SBR_1</title>
				<path d="M0 559.34 L149.96 559.34 L149.96 619.32 L0 619.32 L0 559.34 Z" class="st5"/>
			</g>
			<g v:mID="172" v:groupContext="shape" transform="translate(184.82,-321.66)">
				<title>HMI_Ctverec_Cerpadlo_4</title>
				<path id="HMI_Ctverec_Cerpadlo_4" d="M0 581.84 L44.99 581.84 L44.99 619.32 L0 619.32 L0 581.84 Z" fill="#FFFFFF" stroke="#000000"/>
			</g>
			<g v:mID="173" v:groupContext="shape" transform="translate(184.82,-261.676)">
				<title>HMI_Ctverec_Cerpadlo_5</title>
				<path id="HMI_Ctverec_Cerpadlo_5" d="M0 581.84 L44.99 581.84 L44.99 619.32 L0 619.32 L0 581.84 Z" fill="#FFFFFF" stroke="#000000"/>
			</g>
			<g v:mID="174" v:groupContext="shape" transform="translate(413.508,-244.805)">
				<title>HMI_Ctverec_Napousteni</title>
				<path id="HMI_Ctverec_Napousteni" d="M0 581.83 L44.98 581.83 L44.98 619.32 L0 619.32 L0 581.83 Z" fill="#FFFFFF" stroke="#000000"/>
			</g>
			<g v:mID="175" v:groupContext="shape" transform="translate(413.508,-321.66)">
				<title>HMI_Ctverec_Cerpadlo_10</title>
				<path id="HMI_Ctverec_Cerpadlo_10" d="M0 581.84 L44.98 581.84 L44.98 619.32 L0 619.32 L0 581.84 Z" fill="#FFFFFF" stroke="#000000"/>
			</g>
			<g id="shape278-37" v:mID="278" v:groupContext="shape" transform="translate(334.777,-87.3516)">
				<title>HMI_Text_Mikrosito_SBR</title>
				<path d="M0 581.84 L247.43 581.84 L247.43 619.32 L0 619.32 L0 581.84 Z" class="st6"/>
			</g>
			<g id="shape319-39" v:mID="319" v:groupContext="shape" transform="translate(334.777,-12.3711)">
				<title>HMI_Text_Kal_SBR</title>
				<path d="M0 581.83 L247.43 581.83 L247.43 619.32 L0 619.32 L0 581.83 Z" class="st6"/>
			</g>
			<g id="HMI_Tlac_Start_SBR_2" v:mID="349" v:groupContext="shape" transform="translate(492.234,-282.297)">
				<title>HMI_Tlac_Start_SBR_2</title>
				<path d="M0 559.34 L149.96 559.34 L149.96 619.32 L0 619.32 L0 559.34 Z" class="st5"/>
			</g>
			<g id="HMI_Tlac_Stop_SBR_2" v:mID="356" v:groupContext="shape" transform="translate(679.68,-282.297)">
				<title>HMI_Tlac_Stop_SBR_2</title>
				<path d="M0 559.34 L149.96 559.34 L149.96 619.32 L0 619.32 L0 559.34 Z" class="st5"/>
			</g>
			<g id="HMI_Tlac_Stop_SBR_1" v:mID="362" v:groupContext="shape" transform="translate(679.68,-406.012)">
				<title>HMI_Tlac_Stop_SBR_1</title>
				<path d="M0 559.34 L149.96 559.34 L149.96 619.32 L0 619.32 L0 559.34 Z" class="st5"/>
			</g>
			<g v:mID="393" v:groupContext="shape" transform="translate(184.82,-207.316)">
				<title>HMI_Ctverec_Cerpadlo_6</title>
				<path id="HMI_Ctverec_Cerpadlo_6" d="M0 581.84 L44.99 581.84 L44.99 619.32 L0 619.32 L0 581.84 Z" fill="#FFFFFF" stroke="#000000"/>
			</g>
		</g>
		<g id="shape405-49" v:mID="405" v:groupContext="shape" transform="translate(14.0315,-547.708)">
			<title>List.153</title>
			<desc>Stav nádrží</desc>
			<v:userDefs/>
			<v:textBlock v:margins="rect(4,4,4,4)" v:tabSpace="42.5197"/>
			<v:textRect cx="201.258" cy="583.891" width="402.53" height="70.8661"/>
			<rect x="0" y="548.458" width="402.52" height="70.8661" class="st7"/>
			<text x="6.16" y="601.89" class="st8" v:langID="1029"><v:paragraph v:horizAlign="1"/><v:tabList/>Stav čerpadel</text>		</g>
		<g id="shape406-52" v:mID="406" v:groupContext="shape" transform="translate(9.77953,-501.094)">
			<title>List.297</title>
			<desc>Min</desc>
			<v:userDefs/>
			<v:textBlock v:margins="rect(4,4,4,4)" v:tabSpace="42.5197"/>
			<v:textRect cx="85.7023" cy="603.734" width="171.44" height="31.1811"/>
			<rect x="0" y="588.143" width="171.413" height="31.1811" class="st7"/>
			<text x="8.15" y="612.73" class="st9" v:langID="1029"><v:paragraph v:horizAlign="1"/><v:tabList/>Čerpadlo 1:</text>		</g>
		<g id="shape407-55" v:mID="407" v:groupContext="shape" transform="translate(9.77953,-442.63)">
			<title>List.407</title>
			<desc>Min</desc>
			<v:userDefs/>
			<v:textBlock v:margins="rect(4,4,4,4)" v:tabSpace="42.5197"/>
			<v:textRect cx="85.7023" cy="603.734" width="171.44" height="31.1811"/>
			<rect x="0" y="588.143" width="171.413" height="31.1811" class="st7"/>
			<text x="8.15" y="612.73" class="st9" v:langID="1029"><v:paragraph v:horizAlign="1"/><v:tabList/>Čerpadlo 2:</text>		</g>
		<g id="shape408-58" v:mID="408" v:groupContext="shape" transform="translate(9.77953,-383.102)">
			<title>List.408</title>
			<desc>Min</desc>
			<v:userDefs/>
			<v:textBlock v:margins="rect(4,4,4,4)" v:tabSpace="42.5197"/>
			<v:textRect cx="85.7023" cy="603.734" width="171.44" height="31.1811"/>
			<rect x="0" y="588.143" width="171.413" height="31.1811" class="st7"/>
			<text x="8.15" y="612.73" class="st9" v:langID="1029"><v:paragraph v:horizAlign="1"/><v:tabList/>Čerpadlo 3:</text>		</g>
		<g id="shape409-61" v:mID="409" v:groupContext="shape" transform="translate(9.77953,-322.157)">
			<title>List.409</title>
			<desc>Min</desc>
			<v:userDefs/>
			<v:textBlock v:margins="rect(4,4,4,4)" v:tabSpace="42.5197"/>
			<v:textRect cx="85.7023" cy="603.734" width="171.44" height="31.1811"/>
			<rect x="0" y="588.143" width="171.413" height="31.1811" class="st7"/>
			<text x="8.15" y="612.73" class="st9" v:langID="1029"><v:paragraph v:horizAlign="1"/><v:tabList/>Čerpadlo 4:</text>		</g>
		<g id="shape410-64" v:mID="410" v:groupContext="shape" transform="translate(9.77953,-261.213)">
			<title>List.410</title>
			<desc>Min</desc>
			<v:userDefs/>
			<v:textBlock v:margins="rect(4,4,4,4)" v:tabSpace="42.5197"/>
			<v:textRect cx="85.7023" cy="603.734" width="171.44" height="31.1811"/>
			<rect x="0" y="588.143" width="171.413" height="31.1811" class="st7"/>
			<text x="8.15" y="612.73" class="st9" v:langID="1029"><v:paragraph v:horizAlign="1"/><v:tabList/>Čerpadlo 5:</text>		</g>
		<g id="shape411-67" v:mID="411" v:groupContext="shape" transform="translate(9.77953,-208.772)">
			<title>List.411</title>
			<desc>Min</desc>
			<v:userDefs/>
			<v:textBlock v:margins="rect(4,4,4,4)" v:tabSpace="42.5197"/>
			<v:textRect cx="85.7023" cy="603.734" width="171.44" height="31.1811"/>
			<rect x="0" y="588.143" width="171.413" height="31.1811" class="st7"/>
			<text x="8.15" y="612.73" class="st9" v:langID="1029"><v:paragraph v:horizAlign="1"/><v:tabList/>Čerpadlo 6:</text>		</g>
		<g id="shape412-70" v:mID="412" v:groupContext="shape" transform="translate(242.303,-501.094)">
			<title>List.412</title>
			<desc>Min</desc>
			<v:userDefs/>
			<v:textBlock v:margins="rect(4,4,4,4)" v:tabSpace="42.5197"/>
			<v:textRect cx="85.7023" cy="603.734" width="171.44" height="31.1811"/>
			<rect x="0" y="588.143" width="171.413" height="31.1811" class="st7"/>
			<text x="8.15" y="612.73" class="st9" v:langID="1029"><v:paragraph v:horizAlign="1"/><v:tabList/>Čerpadlo 7:</text>		</g>
		<g id="shape413-73" v:mID="413" v:groupContext="shape" transform="translate(242.303,-442.63)">
			<title>List.413</title>
			<desc>Min</desc>
			<v:userDefs/>
			<v:textBlock v:margins="rect(4,4,4,4)" v:tabSpace="42.5197"/>
			<v:textRect cx="85.7023" cy="603.734" width="171.44" height="31.1811"/>
			<rect x="0" y="588.143" width="171.413" height="31.1811" class="st7"/>
			<text x="8.15" y="612.73" class="st9" v:langID="1029"><v:paragraph v:horizAlign="1"/><v:tabList/>Čerpadlo 8:</text>		</g>
		<g id="shape414-76" v:mID="414" v:groupContext="shape" transform="translate(242.303,-383.102)">
			<title>List.414</title>
			<desc>Min</desc>
			<v:userDefs/>
			<v:textBlock v:margins="rect(4,4,4,4)" v:tabSpace="42.5197"/>
			<v:textRect cx="85.7023" cy="603.734" width="171.44" height="31.1811"/>
			<rect x="0" y="588.143" width="171.413" height="31.1811" class="st7"/>
			<text x="8.15" y="612.73" class="st9" v:langID="1029"><v:paragraph v:horizAlign="1"/><v:tabList/>Čerpadlo 9:</text>		</g>
		<g id="shape415-79" v:mID="415" v:groupContext="shape" transform="translate(229.465,-322.157)">
			<title>List.415</title>
			<desc>Min</desc>
			<v:userDefs/>
			<v:textBlock v:margins="rect(4,4,4,4)" v:tabSpace="42.5197"/>
			<v:textRect cx="90.5209" cy="603.734" width="181.08" height="31.1811"/>
			<rect x="0" y="588.143" width="181.051" height="31.1811" class="st7"/>
			<text x="4.63" y="612.73" class="st9" v:langID="1029"><v:paragraph v:horizAlign="1"/><v:tabList/>Čerpadlo 10:</text>		</g>
		<g id="shape416-82" v:mID="416" v:groupContext="shape" transform="translate(225.579,-256.961)">
			<title>List.416</title>
			<desc>Min</desc>
			<v:userDefs/>
			<v:textBlock v:margins="rect(4,4,4,4)" v:tabSpace="42.5197"/>
			<v:textRect cx="90.5209" cy="603.734" width="181.08" height="31.1811"/>
			<rect x="0" y="588.143" width="181.051" height="31.1811" class="st7"/>
			<text x="23.61" y="594.73" class="st9" v:langID="1029"><v:paragraph v:horizAlign="2"/><v:tabList/>Napouštění <tspan
						x="103.71" dy="1.2em" class="st10">ČOV</tspan>:</text>		</g>
		<g id="shape417-86" v:mID="417" v:groupContext="shape" transform="translate(16.8661,-152.079)">
			<title>List.154</title>
			<desc>Čerpací stanice:</desc>
			<v:userDefs/>
			<v:textBlock v:margins="rect(4,4,4,4)" v:tabSpace="42.5197"/>
			<v:textRect cx="214.438" cy="603.734" width="428.9" height="31.1811"/>
			<rect x="0" y="588.143" width="428.882" height="31.1811" class="st7"/>
			<text x="3.99" y="594.73" class="st11" v:langID="1029"><v:paragraph/><v:tabList/>Nastavení doby čerpání <tspan x="3.99"
						dy="1.2em" class="st10">vyčištěné vody z SBR nádrží</tspan>:</text>		</g>
		<g id="shape418-90" v:mID="418" v:groupContext="shape" transform="translate(14.5984,-35.8583)">
			<title>List.418</title>
			<desc>Čerpací stanice:</desc>
			<v:userDefs/>
			<v:textBlock v:margins="rect(4,4,4,4)" v:tabSpace="42.5197"/>
			<v:textRect cx="288.138" cy="603.734" width="576.31" height="31.1811"/>
			<rect x="0" y="588.143" width="576.283" height="31.1811" class="st7"/>
			<text x="3.99" y="594.73" class="st11" v:langID="1029"><v:paragraph/><v:tabList/>Nastavení doby čerpání kalu z SBR <tspan
						x="3.99" dy="1.2em" class="st10">nádrží</tspan>:</text>		</g>
		<g v:mID="419" v:groupContext="shape" transform="translate(414.88,-88.2992)">
			<title>List.302</title>
			<desc>Min</desc>
			<v:userDefs/>
			<v:textBlock v:margins="rect(4,4,4,4)" v:tabSpace="42.5197"/>
			<v:textRect cx="38.3927" cy="601.608" width="76.8" height="35.4331"/>
			<rect x="0" y="583.891" width="76.7893" height="35.4331" class="st7"/>
			<text id="HMI_Text_Mikrosito_SBR" x="13.37" y="610.61" class="st9" v:langID="1029">000</text>		</g>
		<g v:mID="420" v:groupContext="shape" transform="translate(417.842,-13.8898)">
			<title>List.420</title>
			<desc>Min</desc>
			<v:userDefs/>
			<v:textBlock v:margins="rect(4,4,4,4)" v:tabSpace="42.5197"/>
			<v:textRect cx="38.3927" cy="601.608" width="76.8" height="35.4331"/>
			<rect x="0" y="583.891" width="76.7893" height="35.4331" class="st7"/>
			<text id="HMI_Text_Kal_SBR" x="13.37" y="610.61" class="st9" v:langID="1029">000</text>		</g>
		<g id="shape421-100" v:mID="421" v:groupContext="shape" transform="translate(467.575,-482.315)">
			<title>List.421</title>
			<desc>Čerpací stanice:</desc>
			<v:userDefs/>
			<v:textBlock v:margins="rect(4,4,4,4)" v:tabSpace="42.5197"/>
			<v:textRect cx="197.006" cy="603.734" width="394.03" height="31.1811"/>
			<rect x="0" y="588.143" width="394.016" height="31.1811" class="st7"/>
			<text x="3.99" y="594.73" class="st11" v:langID="1029"><v:paragraph/><v:tabList/>Čerpání kalu do nádrže <tspan x="3.99"
						dy="1.2em" class="st10">SBR</tspan>1:</text>		</g>
		<g id="shape422-104" v:mID="422" v:groupContext="shape" transform="translate(467.575,-357.591)">
			<title>List.422</title>
			<desc>Čerpací stanice:</desc>
			<v:userDefs/>
			<v:textBlock v:margins="rect(4,4,4,4)" v:tabSpace="42.5197"/>
			<v:textRect cx="197.006" cy="603.734" width="394.03" height="31.1811"/>
			<rect x="0" y="588.143" width="394.016" height="31.1811" class="st7"/>
			<text x="3.99" y="594.73" class="st11" v:langID="1029"><v:paragraph/><v:tabList/>Čerpání kalu do nádrže <tspan x="3.99"
						dy="1.2em" class="st10">SBR</tspan>2:</text>		</g>
		<g id="shape423-108" v:mID="423" v:groupContext="shape" transform="translate(612.354,-102.472)">
			<title>List.171</title>
			<desc>Úvodní obrazovka</desc>
			<v:userDefs/>
			<v:textBlock v:margins="rect(4,4,4,4)" v:tabSpace="42.5197"/>
			<v:textRect cx="113.916" cy="589.56" width="227.84" height="59.5276"/>
			<rect x="0" y="559.797" width="227.835" height="59.5276" class="st7"/>
			<text x="10.56" y="596.76" class="st12" v:langID="1029"><v:paragraph v:horizAlign="1"/><v:tabList/>Úvodní obrazovka</text>		</g>
		<g id="shape424-111" v:mID="424" v:groupContext="shape" transform="translate(611.291,-28.7719)">
			<title>List.173</title>
			<desc>Zpět</desc>
			<v:userDefs/>
			<v:textBlock v:margins="rect(4,4,4,4)" v:tabSpace="42.5197"/>
			<v:textRect cx="113.916" cy="589.56" width="227.84" height="59.5276"/>
			<rect x="0" y="559.797" width="227.835" height="59.5276" class="st7"/>
			<text x="88.59" y="596.76" class="st12" v:langID="1029"><v:paragraph v:horizAlign="1"/><v:tabList/>Zpět</text>		</g>
		<g id="shape426-114" v:mID="426" v:groupContext="shape" transform="translate(498.756,-293.811)">
			<title>List.426</title>
			<desc>Start</desc>
			<v:textBlock v:margins="rect(4,4,4,4)" v:tabSpace="42.5197"/>
			<v:textRect cx="70.8661" cy="598.064" width="141.74" height="42.5197"/>
			<rect x="0" y="576.805" width="141.732" height="42.5197" class="st7"/>
			<text x="43.53" y="605.26" class="st12" v:langID="1029"><v:paragraph v:horizAlign="1"/><v:tabList/>Start</text>		</g>
		<g id="shape427-117" v:mID="427" v:groupContext="shape" transform="translate(685.843,-293.811)">
			<title>List.427</title>
			<desc>Stop</desc>
			<v:textBlock v:margins="rect(4,4,4,4)" v:tabSpace="42.5197"/>
			<v:textRect cx="70.8661" cy="598.064" width="141.74" height="42.5197"/>
			<rect x="0" y="576.805" width="141.732" height="42.5197" class="st7"/>
			<text x="44.21" y="605.26" class="st12" v:langID="1029"><v:paragraph v:horizAlign="1"/><v:tabList/>Stop</text>		</g>
		<g id="shape428-120" v:mID="428" v:groupContext="shape" transform="translate(498.756,-415.701)">
			<title>List.428</title>
			<desc>Start</desc>
			<v:textBlock v:margins="rect(4,4,4,4)" v:tabSpace="42.5197"/>
			<v:textRect cx="70.8661" cy="598.064" width="141.74" height="42.5197"/>
			<rect x="0" y="576.805" width="141.732" height="42.5197" class="st7"/>
			<text x="43.53" y="605.26" class="st12" v:langID="1029"><v:paragraph v:horizAlign="1"/><v:tabList/>Start</text>		</g>
		<g id="shape429-123" v:mID="429" v:groupContext="shape" transform="translate(685.843,-415.701)">
			<title>List.429</title>
			<desc>Stop</desc>
			<v:textBlock v:margins="rect(4,4,4,4)" v:tabSpace="42.5197"/>
			<v:textRect cx="70.8661" cy="598.064" width="141.74" height="42.5197"/>
			<rect x="0" y="576.805" width="141.732" height="42.5197" class="st7"/>
			<text x="44.21" y="605.26" class="st12" v:langID="1029"><v:paragraph v:horizAlign="1"/><v:tabList/>Stop</text>		</g>
	</g>
</svg>
